<svg xmlns="http://www.w3.org/2000/svg" data-name="Layer 3" viewBox="0 0 32 40" x="0px" y="0px"><path d="m23.92,14.24c.09-.82.1-1.65.01-2.48-.56-5.05-4.63-9.12-9.68-9.68-3.13-.35-6.26.65-8.58,2.74-2.33,2.08-3.66,5.07-3.66,8.2v10c0,.4.25.75.62.91s.81.06,1.1-.22c1.23-1.21,3.14-1.49,4.64-.68,1.81.98,4.52.99,4.64.99.42,0,.83-.03,1.24-.07.87,3.51,4.08,6.07,7.76,6.07.21,0,2.08-.02,3.39-.73.93-.5,2.12-.33,2.9.44.19.19.45.29.71.29.13,0,.26-.02.38-.08.37-.15.62-.52.62-.92v-7c0-3.69-2.56-6.89-6.08-7.76Zm-14.61,7.01c-.86-.47-1.82-.69-2.77-.69-.87,0-1.74.19-2.54.56v-8.11c0-2.56,1.09-5,3-6.71,1.93-1.73,4.43-2.53,7.03-2.24,4.13.46,7.46,3.78,7.91,7.91.29,2.6-.51,5.1-2.24,7.03-1.71,1.9-4.15,3-6.71,3-.64,0-2.56-.14-3.69-.75Zm18.69,5.98c-1.16-.4-2.46-.32-3.56.28-.74.4-2.01.49-2.44.49-2.74,0-5.1-1.89-5.78-4.49,1.9-.58,3.63-1.66,4.98-3.17,1.07-1.2,1.85-2.61,2.31-4.12,2.6.68,4.49,3.04,4.49,5.78v5.23Z"/><circle cx="13" cy="13" r="1"/><circle cx="17" cy="13" r="1"/><circle cx="9" cy="13" r="1"/><text x="0" y="47" fill="#000000" font-size="5px" font-weight="bold" font-family="'Helvetica Neue', Helvetica, Arial-Unicode, Arial, Sans-serif">Created by Adriansyah</text><text x="0" y="52" fill="#000000" font-size="5px" font-weight="bold" font-family="'Helvetica Neue', Helvetica, Arial-Unicode, Arial, Sans-serif">from the Noun Project</text></svg>